<svg xmlns="http://www.w3.org/2000/svg" version="1.1" xmlns:xlink="http://www.w3.org/1999/xlink" xmlns:svgjs="http://svgjs.dev/svgjs" width="1000" height="1000"><g clip-path="url(#SvgjsClipPath1182)"><rect width="1000" height="1000" fill="#ffffff"></rect><g transform="matrix(3.2679738562091503,0,0,3.2679738562091503,0,107.84313725490199)"><svg xmlns="http://www.w3.org/2000/svg" version="1.1" xmlns:xlink="http://www.w3.org/1999/xlink" xmlns:svgjs="http://svgjs.dev/svgjs" width="306" height="240"><svg width="306" height="240" viewBox="0 0 306 240" fill="none" xmlns="http://www.w3.org/2000/svg">
<rect width="306" height="240" fill="white"></rect>
<mask id="path-1-inside-1_1874_11069" fill="white">
<path d="M30 87C30 56.6243 54.6243 32 85 32H221C251.376 32 276 56.6243 276 87V134C276 164.376 251.376 189 221 189H85C54.6243 189 30 164.376 30 134V87Z"></path>
</mask>
<path d="M30 87C30 56.6243 54.6243 32 85 32H221C251.376 32 276 56.6243 276 87V134C276 164.376 251.376 189 221 189H85C54.6243 189 30 164.376 30 134V87Z" fill="white"></path>
<path d="M-9 87C-9 37.8467 30.8467 -2 80 -2H226C275.153 -2 315 37.8467 315 87H237C237 75.402 229.837 66 221 66H85C76.1634 66 69 75.402 69 87H-9ZM315 134C315 183.153 275.153 223 226 223H80C30.8467 223 -9 183.153 -9 134H69C69 145.598 76.1634 155 85 155H221C229.837 155 237 145.598 237 134H315ZM80 223C30.8467 223 -9 183.153 -9 134V87C-9 37.8467 30.8467 -2 80 -2L85 66C76.1634 66 69 75.402 69 87V134C69 145.598 76.1634 155 85 155L80 223ZM226 -2C275.153 -2 315 37.8467 315 87V134C315 183.153 275.153 223 226 223L221 155C229.837 155 237 145.598 237 134V87C237 75.402 229.837 66 221 66L226 -2Z" fill="#3C434D" mask="url(#path-1-inside-1_1874_11069)"></path>
<path d="M115.14 138.287C115.04 138.466 114.99 138.647 114.989 138.831C114.985 139.013 115.028 139.194 115.116 139.373C115.204 139.553 115.337 139.727 115.515 139.896C115.692 140.06 115.911 140.215 116.172 140.36C116.526 140.556 116.848 140.675 117.139 140.719C117.429 140.763 117.686 140.728 117.91 140.614C118.135 140.497 118.324 140.301 118.478 140.024C118.617 139.773 118.716 139.513 118.774 139.244C118.834 138.972 118.88 138.691 118.914 138.402L120.198 139.112C120.17 139.422 120.109 139.721 120.013 140.01C119.918 140.295 119.79 140.584 119.628 140.877C119.29 141.487 118.893 141.92 118.437 142.176C117.979 142.428 117.484 142.527 116.951 142.474C116.419 142.417 115.869 142.232 115.3 141.917C114.875 141.681 114.518 141.406 114.229 141.093C113.942 140.776 113.733 140.431 113.602 140.057C113.468 139.682 113.425 139.286 113.471 138.87C113.516 138.449 113.66 138.02 113.903 137.582C114.053 137.31 114.243 137.042 114.473 136.777C114.702 136.509 114.965 136.27 115.263 136.059L116.201 137.186C115.99 137.337 115.793 137.5 115.61 137.673C115.427 137.846 115.27 138.051 115.14 138.287Z" fill="#25D1D5"></path>
<path d="M126.702 133.613L125.633 132.975L124.144 134.437L124.755 135.524L123.394 136.86L120.371 130.788L122.024 129.166L128.057 132.283L126.702 133.613ZM124.379 132.211L123.442 131.653C123.341 131.592 123.197 131.505 123.01 131.394C122.82 131.28 122.626 131.162 122.429 131.04C122.231 130.914 122.07 130.809 121.947 130.725C122.031 130.848 122.131 131.004 122.247 131.194C122.363 131.38 122.477 131.566 122.587 131.753C122.699 131.939 122.791 132.095 122.862 132.222L123.403 133.169L124.379 132.211Z" fill="#25D1D5"></path>
<path d="M135.497 127.912L133.97 128.736L131.594 124.33L130.213 125.075L129.539 123.825L133.825 121.514L134.499 122.764L133.122 123.506L135.497 127.912Z" fill="#25D1D5"></path>
<path d="M147.181 117.728L146.482 124.453L144.484 124.885L141.077 119.048L142.984 118.636L144.528 121.634C144.585 121.747 144.654 121.894 144.735 122.074C144.818 122.251 144.897 122.429 144.972 122.607C145.049 122.786 145.105 122.932 145.139 123.048C145.125 122.928 145.114 122.773 145.106 122.583C145.098 122.393 145.093 122.202 145.09 122.011C145.09 121.816 145.094 121.655 145.102 121.527L145.282 118.139L147.181 117.728Z" fill="#25D1D5"></path>
<path d="M157.448 124.22L155.716 124.102L156.058 119.108L154.493 119.001L154.59 117.584L159.448 117.918L159.351 119.334L157.79 119.227L157.448 124.22Z" fill="#25D1D5"></path>
<path d="M172.081 125.043C171.908 125.507 171.694 125.908 171.439 126.248C171.187 126.585 170.893 126.847 170.554 127.034C170.215 127.22 169.833 127.318 169.407 127.328C168.982 127.335 168.512 127.242 167.996 127.049C167.491 126.86 167.081 126.624 166.765 126.34C166.452 126.054 166.227 125.731 166.09 125.37C165.954 125.007 165.899 124.612 165.927 124.188C165.954 123.763 166.055 123.316 166.231 122.847C166.464 122.221 166.77 121.717 167.149 121.332C167.53 120.947 167.985 120.708 168.513 120.618C169.042 120.525 169.644 120.604 170.319 120.857C171.006 121.113 171.515 121.449 171.848 121.864C172.183 122.28 172.364 122.758 172.391 123.296C172.418 123.835 172.315 124.417 172.081 125.043ZM167.94 123.495C167.805 123.858 167.729 124.184 167.714 124.476C167.699 124.767 167.755 125.016 167.881 125.223C168.007 125.43 168.214 125.587 168.502 125.695C168.801 125.806 169.065 125.825 169.293 125.751C169.524 125.677 169.726 125.525 169.9 125.293C170.077 125.062 170.233 124.765 170.369 124.403C170.572 123.86 170.642 123.396 170.579 123.013C170.515 122.63 170.263 122.355 169.821 122.19C169.527 122.081 169.263 122.063 169.029 122.138C168.797 122.214 168.591 122.369 168.41 122.601C168.232 122.835 168.075 123.133 167.94 123.495Z" fill="#25D1D5"></path>
<path d="M183.218 128.724C183.864 129.22 184.24 129.731 184.345 130.259C184.452 130.788 184.307 131.312 183.91 131.83C183.731 132.062 183.526 132.26 183.295 132.422C183.066 132.586 182.811 132.693 182.532 132.745C182.255 132.798 181.954 132.778 181.631 132.685C181.31 132.594 180.968 132.409 180.605 132.131L180.218 131.834L178.921 133.525L177.543 132.468L181.454 127.371L183.218 128.724ZM182.333 129.812L181.978 129.539L181.079 130.711L181.351 130.92C181.47 131.011 181.595 131.076 181.728 131.114C181.862 131.151 181.994 131.147 182.124 131.103C182.258 131.058 182.384 130.959 182.502 130.806C182.625 130.645 182.677 130.478 182.659 130.305C182.642 130.13 182.533 129.966 182.333 129.812Z" fill="#25D1D5"></path>
<path d="M186.797 142.659L187.586 141.696L186.361 140.006L185.195 140.449L184.076 138.905L190.529 136.816L191.889 138.691L187.912 144.196L186.797 142.659ZM188.528 140.568L189.219 139.725C189.294 139.634 189.401 139.505 189.539 139.336C189.68 139.165 189.825 138.991 189.975 138.814C190.129 138.637 190.256 138.493 190.358 138.384C190.224 138.448 190.054 138.524 189.85 138.611C189.649 138.699 189.448 138.783 189.246 138.864C189.046 138.948 188.878 139.015 188.742 139.067L187.725 139.462L188.528 140.568Z" fill="#25D1D5"></path>
<path d="M100.127 111.758L96.5441 107.311L97.7456 106.343L100.547 109.82L102.259 108.44L103.041 109.411L100.127 111.758Z" fill="#1BC3C8"></path>
<path d="M94.4755 104.918L91.0165 100.374L92.2442 99.4391L94.9485 102.992L96.6984 101.66L97.4532 102.651L94.4755 104.918Z" fill="#1BC3C8"></path>
<path d="M117.279 96.2772L117.001 93.959L118.423 93.0787L118.658 97.0269L119.832 98.9232L118.51 99.7418L117.361 97.8854L113.906 95.8758L115.334 94.9914L117.279 96.2772Z" fill="#1BC3C8"></path>
<path d="M136.765 88.0728L139.199 87.6844L139.684 90.724C139.41 90.8707 139.09 91.0061 138.725 91.1303C138.359 91.252 137.97 91.3456 137.559 91.4113C137.016 91.4979 136.524 91.4683 136.081 91.3227C135.639 91.1771 135.269 90.9078 134.971 90.5149C134.673 90.1194 134.472 89.5924 134.367 88.9341C134.273 88.3426 134.304 87.8141 134.462 87.3485C134.619 86.8804 134.899 86.4942 135.302 86.19C135.706 85.8829 136.229 85.6782 136.869 85.576C137.221 85.5198 137.561 85.4998 137.888 85.5162C138.215 85.5326 138.504 85.5736 138.754 85.6391L138.463 86.9118C138.244 86.844 138.021 86.803 137.794 86.7891C137.568 86.7725 137.328 86.7844 137.076 86.8246C136.739 86.8783 136.48 86.9975 136.299 87.182C136.12 87.3662 136.004 87.5929 135.952 87.8623C135.9 88.1291 135.898 88.4155 135.947 88.7215C136.003 89.0713 136.099 89.3592 136.235 89.5854C136.374 89.8085 136.548 89.9679 136.758 90.0636C136.971 90.1562 137.214 90.1808 137.486 90.1373C137.576 90.1229 137.684 90.0991 137.811 90.0657C137.94 90.0319 138.037 90.0007 138.101 89.972L137.96 89.0886L136.953 89.2493L136.765 88.0728Z" fill="#1BC3C8"></path>
<path d="M158.249 86.5156C158.066 86.5131 157.903 86.55 157.759 86.6261C157.615 86.6997 157.491 86.8087 157.387 86.9532C157.284 87.0976 157.203 87.2749 157.146 87.4851C157.091 87.6927 157.061 87.9293 157.058 88.1949C157.053 88.5543 157.094 88.8569 157.182 89.1029C157.27 89.3489 157.405 89.5357 157.589 89.6632C157.774 89.7907 158.008 89.8564 158.289 89.8602C158.544 89.8637 158.79 89.8318 159.025 89.7647C159.263 89.6976 159.502 89.6162 159.743 89.5205L159.725 90.8251C159.471 90.9336 159.211 91.0108 158.945 91.0567C158.681 91.1026 158.401 91.1236 158.104 91.1195C157.484 91.1111 156.978 90.9818 156.586 90.7317C156.196 90.479 155.91 90.1327 155.729 89.6926C155.55 89.2527 155.464 88.7437 155.472 88.1656C155.478 87.7333 155.543 87.3384 155.668 86.9806C155.795 86.623 155.978 86.3142 156.216 86.0544C156.454 85.792 156.745 85.5915 157.091 85.4529C157.439 85.3118 157.836 85.2443 158.281 85.2503C158.557 85.254 158.847 85.2905 159.151 85.3598C159.458 85.4264 159.756 85.532 160.045 85.6766L159.556 86.8849C159.349 86.7832 159.139 86.697 158.927 86.6264C158.714 86.5558 158.488 86.5188 158.249 86.5156Z" fill="#1BC3C8"></path>
<path d="M192.58 99.8991L192.774 98.8096L191.09 98.0304L190.379 98.8804L188.84 98.1684L192.939 93.7467L194.808 94.6112L194.112 100.608L192.58 99.8991ZM193.015 97.5265L193.186 96.5723C193.205 96.4692 193.231 96.3222 193.265 96.1312C193.3 95.9379 193.337 95.7399 193.376 95.5371C193.419 95.3331 193.456 95.1665 193.487 95.0374C193.411 95.1457 193.312 95.278 193.191 95.4343C193.074 95.5894 192.954 95.7421 192.833 95.8926C192.714 96.0442 192.613 96.1696 192.53 96.2688L191.913 97.0163L193.015 97.5265Z" fill="#1BC3C8"></path>
<path d="M181.702 95.4445L180.327 94.7455L182.343 90.779L181.099 90.1472L181.671 89.0224L185.529 90.9832L184.958 92.108L183.718 91.478L181.702 95.4445Z" fill="#1BC3C8"></path>
<path d="M207.5 103.015L202.501 106.351L201.073 105.229L203.135 99.5867L204.499 100.658L203.322 103.414C203.277 103.518 203.216 103.649 203.138 103.807C203.065 103.964 202.988 104.119 202.908 104.271C202.83 104.425 202.761 104.547 202.701 104.635C202.775 104.558 202.875 104.462 203.001 104.349C203.126 104.236 203.254 104.124 203.383 104.014C203.516 103.903 203.629 103.814 203.721 103.748L206.142 101.949L207.5 103.015Z" fill="#1BC3C8"></path>
<path d="M212.517 119.444L211.171 118.339L211.683 115.935L211.157 115.856L209.945 117.333L208.746 116.349L212.369 111.934L213.568 112.918L211.994 114.836C212.124 114.78 212.26 114.731 212.404 114.687C212.55 114.645 212.689 114.606 212.823 114.571L214.86 113.979L216.165 115.05L213.149 115.885L212.517 119.444Z" fill="#1BC3C8"></path>
<path d="M98.7295 127.501L94.7395 123.415L95.8434 122.337L98.9629 125.531L100.536 123.995L101.407 124.886L98.7295 127.501Z" fill="#1BC3C8"></path>
<path d="M116.448 111.796L115.546 111.155L114.122 112.344L114.586 113.351L113.285 114.438L111.04 108.841L112.62 107.522L117.743 110.715L116.448 111.796ZM114.489 110.389L113.699 109.827C113.614 109.766 113.493 109.679 113.335 109.567C113.175 109.452 113.012 109.334 112.845 109.212C112.679 109.086 112.544 108.981 112.441 108.898C112.506 109.013 112.584 109.159 112.673 109.335C112.763 109.508 112.85 109.681 112.934 109.855C113.02 110.027 113.091 110.172 113.145 110.29L113.557 111.167L114.489 110.389Z" fill="#1BC3C8"></path>
<path d="M115.656 86.0715C115.805 86.343 115.878 86.6385 115.876 86.958C115.872 87.2751 115.766 87.5887 115.56 87.8987C115.355 88.2074 115.024 88.4872 114.568 88.7382C114.34 88.8637 114.133 88.9638 113.949 89.0387C113.766 89.1122 113.588 89.167 113.415 89.2029C113.24 89.2366 113.052 89.2597 112.851 89.2722L112.188 88.0673C112.535 88.0549 112.867 88.0093 113.183 87.9305C113.498 87.8494 113.767 87.7474 113.991 87.6244C114.126 87.5504 114.226 87.4742 114.293 87.3958C114.362 87.3162 114.403 87.2377 114.413 87.1603C114.423 87.0807 114.408 87.0044 114.368 86.9313C114.32 86.8446 114.249 86.7885 114.155 86.7631C114.062 86.7341 113.931 86.7229 113.762 86.7295C113.593 86.7361 113.373 86.75 113.103 86.7711C112.87 86.786 112.654 86.7892 112.453 86.7808C112.254 86.771 112.069 86.7375 111.898 86.6801C111.728 86.6192 111.571 86.5256 111.427 86.3996C111.284 86.2735 111.153 86.1032 111.035 85.8887C110.858 85.5669 110.789 85.2544 110.827 84.951C110.866 84.6441 110.997 84.3581 111.22 84.093C111.445 83.8266 111.743 83.5911 112.115 83.3866C112.442 83.2072 112.755 83.0824 113.055 83.0124C113.358 82.9411 113.639 82.8952 113.898 82.8745L114.058 84.1462C113.789 84.1661 113.536 84.2046 113.297 84.2617C113.056 84.3166 112.847 84.3929 112.669 84.4908C112.553 84.5548 112.465 84.6223 112.406 84.6934C112.348 84.7609 112.314 84.8287 112.304 84.8967C112.296 84.9635 112.309 85.0276 112.343 85.0892C112.386 85.1668 112.453 85.2201 112.547 85.2491C112.642 85.2768 112.781 85.2883 112.962 85.2835C113.145 85.2752 113.391 85.2603 113.7 85.2389C114.005 85.2142 114.277 85.2187 114.519 85.2523C114.759 85.2837 114.973 85.3639 115.159 85.493C115.347 85.6185 115.513 85.8113 115.656 86.0715Z" fill="#1BC3C8"></path>
<path d="M137.854 75.0665C137.916 75.4574 137.931 75.8267 137.9 76.1746C137.87 76.5195 137.786 76.8336 137.647 77.1169C137.509 77.3972 137.31 77.6401 137.047 77.8455L138.677 79.2111L136.779 79.514L135.628 78.4002C135.626 78.4006 135.617 78.402 135.601 78.4045C135.589 78.4066 135.58 78.408 135.574 78.4088C135.101 78.4843 134.68 78.4816 134.311 78.4007C133.944 78.3169 133.629 78.1655 133.365 77.9466C133.1 77.7251 132.885 77.4443 132.72 77.1041C132.555 76.7638 132.437 76.3739 132.367 75.9341C132.273 75.3478 132.289 74.8232 132.413 74.3604C132.539 73.8946 132.786 73.511 133.155 73.2096C133.523 72.9056 134.023 72.7031 134.656 72.6021C135.299 72.4995 135.84 72.5358 136.279 72.711C136.721 72.8857 137.07 73.1754 137.328 73.58C137.585 73.9847 137.76 74.4802 137.854 75.0665ZM133.973 75.6857C134.027 76.0252 134.112 76.3109 134.228 76.5429C134.345 76.7749 134.497 76.9432 134.685 77.0476C134.873 77.1521 135.102 77.1828 135.372 77.1397C135.652 77.095 135.864 76.9939 136.008 76.8365C136.154 76.6787 136.244 76.4719 136.277 76.2161C136.312 75.9599 136.303 75.662 136.249 75.3226C136.168 74.8134 136.018 74.4245 135.802 74.1558C135.585 73.8872 135.269 73.7859 134.855 73.8519C134.58 73.8959 134.368 73.9982 134.22 74.159C134.074 74.3194 133.982 74.5292 133.944 74.7884C133.909 75.0472 133.919 75.3463 133.973 75.6857Z" fill="#1BC3C8"></path>
<path d="M157.698 73.3239C158.422 73.3338 158.962 73.4986 159.317 73.8186C159.674 74.1386 159.849 74.5889 159.841 75.1696C159.838 75.43 159.797 75.6794 159.718 75.918C159.642 76.1566 159.518 76.3684 159.346 76.5536C159.177 76.7388 158.952 76.8842 158.672 76.9898C158.395 77.0955 158.053 77.1455 157.647 77.14L157.213 77.1341L157.187 79.0285L155.644 79.0075L155.722 73.2971L157.698 73.3239ZM157.646 74.5694L157.248 74.564L157.23 75.8764L157.535 75.8806C157.668 75.8824 157.792 75.8619 157.907 75.8192C158.022 75.7739 158.114 75.7009 158.183 75.6003C158.255 75.4971 158.292 75.3595 158.294 75.1877C158.297 75.008 158.245 74.8614 158.14 74.748C158.035 74.632 157.87 74.5725 157.646 74.5694Z" fill="#1BC3C8"></path>
<path d="M165.566 112.882L165.693 111.783L163.964 111.109L163.306 112.001L161.726 111.386L165.545 106.719L167.463 107.467L167.139 113.495L165.566 112.882ZM165.854 110.487L165.965 109.524C165.978 109.42 165.995 109.272 166.017 109.079C166.04 108.884 166.065 108.684 166.092 108.479C166.122 108.273 166.148 108.105 166.171 107.974C166.102 108.087 166.012 108.225 165.901 108.388C165.793 108.55 165.683 108.71 165.571 108.868C165.462 109.026 165.369 109.158 165.292 109.262L164.722 110.046L165.854 110.487Z" fill="#1BC3C8"></path>
<path d="M196.719 90.3136L195.403 89.508L197.726 85.7134L196.537 84.9852L197.196 83.9092L200.887 86.169L200.228 87.2451L199.042 86.519L196.719 90.3136Z" fill="#1BC3C8"></path>
<path d="M191.648 104.612L187.187 108.639L185.611 107.736L186.831 101.854L188.336 102.716L187.573 105.614C187.543 105.723 187.502 105.862 187.448 106.029C187.398 106.195 187.344 106.36 187.287 106.522C187.233 106.686 187.182 106.816 187.136 106.912C187.198 106.825 187.283 106.716 187.39 106.586C187.498 106.455 187.608 106.326 187.72 106.198C187.836 106.069 187.935 105.965 188.016 105.886L190.15 103.754L191.648 104.612Z" fill="#1BC3C8"></path>
<path d="M217.694 111.947L216.501 110.968L219.323 107.529L218.245 106.644L219.046 105.669L222.392 108.415L221.591 109.39L220.516 108.508L217.694 111.947Z" fill="#1BC3C8"></path>
<path d="M110.508 133.299L109.514 132.813L108.302 134.219L108.925 135.137L107.818 136.421L104.69 131.266L106.034 129.707L111.61 132.021L110.508 133.299ZM108.346 132.23L107.475 131.804C107.381 131.758 107.247 131.692 107.073 131.607C106.896 131.52 106.716 131.43 106.532 131.337C106.347 131.24 106.197 131.159 106.082 131.093C106.165 131.196 106.265 131.327 106.382 131.487C106.499 131.642 106.613 131.799 106.725 131.957C106.838 132.113 106.931 132.244 107.003 132.352L107.553 133.15L108.346 132.23Z" fill="#09CDD9"></path>
<path d="M108.479 118.181L107.362 119.245L104.293 116.024L103.284 116.986L102.413 116.073L105.547 113.087L106.417 114L105.41 114.96L108.479 118.181Z" fill="#09CDD9"></path>
<path d="M122.36 104.443L124.49 103.203L126.038 105.864C125.835 106.1 125.586 106.341 125.29 106.589C124.992 106.834 124.664 107.061 124.304 107.271C123.829 107.547 123.359 107.697 122.893 107.721C122.428 107.745 121.986 107.627 121.567 107.367C121.146 107.106 120.769 106.687 120.433 106.111C120.132 105.593 119.971 105.089 119.951 104.597C119.929 104.104 120.051 103.643 120.316 103.214C120.583 102.782 120.997 102.403 121.557 102.077C121.865 101.897 122.175 101.756 122.486 101.654C122.797 101.551 123.081 101.485 123.338 101.456L123.525 102.748C123.296 102.764 123.074 102.806 122.857 102.875C122.64 102.941 122.421 103.038 122.2 103.167C121.905 103.338 121.707 103.543 121.604 103.78C121.503 104.017 121.477 104.27 121.526 104.54C121.573 104.807 121.675 105.075 121.831 105.343C122.009 105.649 122.202 105.883 122.411 106.045C122.62 106.203 122.84 106.289 123.071 106.302C123.303 106.312 123.538 106.248 123.777 106.109C123.855 106.063 123.948 106.002 124.054 105.925C124.162 105.847 124.241 105.783 124.29 105.733L123.84 104.96L122.959 105.473L122.36 104.443Z" fill="#09CDD9"></path>
<path d="M138.075 95.9037C138.583 95.804 139.018 95.7836 139.38 95.8427C139.742 95.8993 140.031 96.0337 140.247 96.2459C140.467 96.4577 140.612 96.7463 140.684 97.1117C140.728 97.3392 140.731 97.5537 140.691 97.7552C140.651 97.9568 140.573 98.1458 140.459 98.322C140.347 98.4953 140.204 98.6561 140.029 98.8046L142.14 100.926L140.423 101.263L138.835 99.4566L138.452 99.5317L138.851 101.571L137.337 101.868L136.238 96.2637L138.075 95.9037ZM138.276 97.0543L137.977 97.1129L138.228 98.3933L138.512 98.3376C138.745 98.292 138.925 98.2036 139.053 98.0723C139.181 97.941 139.22 97.7438 139.168 97.4806C139.132 97.2991 139.043 97.1693 138.901 97.0912C138.758 97.013 138.55 97.0007 138.276 97.0543Z" fill="#09CDD9"></path>
<path d="M160.402 99.3245C160.398 99.6343 160.316 99.9275 160.156 100.204C159.996 100.478 159.749 100.699 159.416 100.866C159.086 101.033 158.66 101.114 158.139 101.106C157.879 101.103 157.65 101.088 157.452 101.062C157.257 101.036 157.076 100.996 156.907 100.941C156.739 100.884 156.564 100.812 156.383 100.723L156.401 99.3483C156.709 99.5088 157.02 99.6328 157.334 99.7204C157.648 99.8054 157.932 99.8496 158.188 99.8531C158.341 99.8552 158.466 99.8386 158.563 99.8035C158.663 99.7684 158.736 99.7199 158.784 99.658C158.832 99.5936 158.856 99.5197 158.857 99.4363C158.859 99.3374 158.825 99.2536 158.755 99.1849C158.689 99.1137 158.58 99.0393 158.43 98.9618C158.28 98.8842 158.082 98.7877 157.836 98.6724C157.627 98.5706 157.437 98.4665 157.266 98.36C157.099 98.2535 156.954 98.1331 156.834 97.9986C156.716 97.8616 156.626 97.7028 156.563 97.5222C156.5 97.3417 156.471 97.129 156.474 96.8842C156.479 96.5171 156.573 96.211 156.756 95.9661C156.942 95.7186 157.197 95.5345 157.521 95.4139C157.848 95.2934 158.224 95.236 158.649 95.2417C159.021 95.2468 159.355 95.293 159.651 95.3803C159.949 95.4677 160.216 95.5664 160.452 95.6764L159.963 96.8613C159.719 96.746 159.48 96.6542 159.244 96.5858C159.008 96.5149 158.788 96.4781 158.585 96.4753C158.452 96.4735 158.343 96.489 158.256 96.5217C158.173 96.5518 158.109 96.5939 158.067 96.648C158.027 96.7022 158.007 96.7644 158.006 96.8347C158.005 96.9232 158.037 97.0031 158.104 97.0743C158.174 97.1456 158.288 97.224 158.449 97.3095C158.612 97.3925 158.833 97.5009 159.112 97.6349C159.389 97.7637 159.624 97.9023 159.818 98.0508C160.011 98.1967 160.157 98.3718 160.256 98.5763C160.357 98.7782 160.406 99.0276 160.402 99.3245Z" fill="#09CDD9"></path>
<path d="M177.575 105.895L177.731 104.799L176.022 104.078L175.339 104.952L173.777 104.293L177.723 99.7335L179.619 100.534L179.129 106.55L177.575 105.895ZM177.928 103.509L178.066 102.549C178.081 102.445 178.102 102.298 178.13 102.106C178.158 101.911 178.188 101.712 178.221 101.508C178.256 101.303 178.288 101.135 178.314 101.005C178.242 101.116 178.148 101.251 178.032 101.412C177.92 101.571 177.806 101.727 177.69 101.882C177.576 102.037 177.48 102.166 177.4 102.268L176.809 103.036L177.928 103.509Z" fill="#09CDD9"></path>
<path d="M195.116 117.13L193.862 116.23L196.456 112.615L195.323 111.802L196.058 110.777L199.575 113.3L198.839 114.326L197.71 113.515L195.116 117.13Z" fill="#09CDD9"></path>
<path d="M206.228 120.168C206.748 120.671 207.028 121.161 207.067 121.638C207.107 122.116 206.926 122.564 206.522 122.981C206.34 123.168 206.139 123.321 205.918 123.44C205.699 123.562 205.464 123.631 205.212 123.648C204.962 123.666 204.698 123.618 204.422 123.503C204.148 123.389 203.865 123.191 203.573 122.908L203.261 122.607L201.943 123.967L200.835 122.894L204.809 118.792L206.228 120.168ZM205.336 121.038L205.05 120.761L204.137 121.703L204.356 121.915C204.451 122.008 204.555 122.078 204.668 122.126C204.783 122.172 204.9 122.182 205.02 122.156C205.143 122.13 205.264 122.056 205.383 121.932C205.508 121.803 205.572 121.661 205.573 121.507C205.576 121.35 205.497 121.194 205.336 121.038Z" fill="#09CDD9"></path>
<path d="M223.746 101.349L227.369 96.934L228.562 97.9129L225.729 101.364L227.429 102.759L226.639 103.723L223.746 101.349Z" fill="#09CDD9"></path>
<path d="M113.278 122.908C113.135 123.055 113.037 123.216 112.987 123.392C112.935 123.567 112.927 123.752 112.964 123.949C113.001 124.145 113.082 124.349 113.208 124.559C113.334 124.765 113.504 124.973 113.717 125.182C114.005 125.466 114.284 125.668 114.552 125.787C114.82 125.907 115.077 125.943 115.324 125.893C115.572 125.841 115.807 125.702 116.029 125.477C116.23 125.272 116.395 125.048 116.523 124.804C116.654 124.559 116.774 124.301 116.883 124.031L117.93 125.06C117.82 125.351 117.681 125.622 117.511 125.874C117.343 126.124 117.142 126.368 116.908 126.606C116.419 127.104 115.921 127.415 115.412 127.539C114.904 127.659 114.4 127.622 113.901 127.428C113.404 127.231 112.924 126.904 112.46 126.449C112.113 126.108 111.843 125.747 111.649 125.368C111.457 124.986 111.348 124.598 111.322 124.202C111.294 123.805 111.358 123.411 111.514 123.023C111.67 122.63 111.924 122.255 112.275 121.898C112.493 121.676 112.748 121.469 113.041 121.276C113.333 121.079 113.651 120.918 113.994 120.795L114.596 122.133C114.352 122.222 114.119 122.325 113.896 122.443C113.673 122.561 113.467 122.716 113.278 122.908Z" fill="#09CDD9"></path>
<path d="M130.168 117.196L129.27 116.335L127.49 117.425L127.841 118.621L126.214 119.617L124.634 113.021L126.609 111.811L131.788 116.205L130.168 117.196ZM128.219 115.309L127.432 114.554C127.348 114.471 127.227 114.355 127.069 114.204C126.91 114.051 126.748 113.892 126.582 113.729C126.418 113.562 126.285 113.423 126.184 113.314C126.238 113.452 126.3 113.627 126.371 113.838C126.442 114.045 126.511 114.252 126.576 114.459C126.644 114.665 126.698 114.838 126.739 114.978L127.053 116.022L128.219 115.309Z" fill="#09CDD9"></path>
<path d="M144.381 113.272L143.679 112.243L141.712 112.942L141.809 114.185L140.012 114.823L139.828 108.043L142.011 107.268L146.17 112.637L144.381 113.272ZM142.863 111.022L142.25 110.121C142.184 110.023 142.089 109.884 141.966 109.704C141.842 109.521 141.716 109.332 141.588 109.139C141.462 108.941 141.361 108.778 141.284 108.65C141.308 108.796 141.333 108.98 141.359 109.201C141.386 109.419 141.41 109.635 141.431 109.852C141.455 110.067 141.472 110.248 141.484 110.393L141.576 111.479L142.863 111.022Z" fill="#09CDD9"></path>
<path d="M157.684 106.963C157.479 106.96 157.295 107.001 157.132 107.086C156.97 107.168 156.83 107.291 156.713 107.453C156.597 107.615 156.506 107.814 156.44 108.051C156.378 108.284 156.344 108.55 156.34 108.849C156.333 109.253 156.379 109.594 156.477 109.871C156.575 110.148 156.727 110.358 156.933 110.502C157.142 110.646 157.404 110.721 157.72 110.726C158.008 110.73 158.283 110.695 158.548 110.62C158.816 110.545 159.086 110.455 159.357 110.348L159.334 111.815C159.047 111.937 158.755 112.023 158.455 112.074C158.158 112.125 157.843 112.147 157.509 112.142C156.812 112.131 156.243 111.984 155.802 111.702C155.364 111.416 155.043 111.026 154.84 110.53C154.64 110.035 154.545 109.462 154.556 108.812C154.564 108.325 154.638 107.881 154.779 107.479C154.923 107.077 155.13 106.73 155.398 106.439C155.666 106.144 155.995 105.919 156.384 105.764C156.777 105.607 157.223 105.532 157.724 105.54C158.035 105.545 158.361 105.586 158.702 105.665C159.047 105.741 159.382 105.861 159.707 106.024L159.154 107.382C158.921 107.267 158.686 107.169 158.447 107.089C158.208 107.009 157.953 106.967 157.684 106.963Z" fill="#09CDD9"></path>
<path d="M174.416 116.076L174.567 114.84L172.627 114.069L171.88 115.068L170.108 114.364L174.438 109.143L176.591 109.998L176.181 116.777L174.416 116.076ZM174.758 113.384L174.89 112.302C174.905 112.185 174.926 112.018 174.952 111.801C174.979 111.582 175.009 111.357 175.04 111.127C175.075 110.895 175.107 110.706 175.133 110.559C175.055 110.685 174.952 110.84 174.826 111.023C174.704 111.204 174.579 111.383 174.452 111.56C174.328 111.738 174.222 111.885 174.135 112.001L173.488 112.879L174.758 113.384Z" fill="#09CDD9"></path>
<path d="M187.995 124.933L186.744 123.729L190.214 120.122L189.083 119.034L190.067 118.011L193.576 121.387L192.592 122.41L191.465 121.325L187.995 124.933Z" fill="#09CDD9"></path>
<path d="M197.505 130.229C197.375 130.07 197.224 129.957 197.054 129.889C196.886 129.818 196.702 129.792 196.503 129.808C196.304 129.824 196.093 129.884 195.871 129.988C195.653 130.091 195.428 130.239 195.198 130.429C194.886 130.686 194.656 130.942 194.509 131.196C194.362 131.45 194.3 131.703 194.324 131.953C194.35 132.205 194.464 132.453 194.665 132.697C194.848 132.918 195.053 133.106 195.282 133.259C195.513 133.414 195.757 133.56 196.014 133.697L194.882 134.631C194.604 134.492 194.349 134.325 194.116 134.13C193.884 133.937 193.662 133.712 193.45 133.455C193.006 132.917 192.749 132.388 192.678 131.87C192.611 131.351 192.7 130.854 192.946 130.378C193.193 129.904 193.567 129.461 194.069 129.047C194.444 128.737 194.831 128.506 195.228 128.353C195.628 128.202 196.026 128.134 196.422 128.149C196.82 128.162 197.204 128.266 197.575 128.462C197.949 128.658 198.296 128.95 198.615 129.336C198.812 129.576 198.992 129.851 199.154 130.162C199.319 130.473 199.446 130.806 199.532 131.16L198.14 131.619C198.076 131.368 197.998 131.125 197.904 130.891C197.81 130.657 197.677 130.436 197.505 130.229Z" fill="#09CDD9"></path>
<path d="M180.552 119.566L179.044 118.706L181.525 114.358L180.162 113.581L180.865 112.348L185.094 114.761L184.391 115.994L183.032 115.218L180.552 119.566Z" fill="#09CDD9"></path>
<path d="M94.278 118.693L93.3223 118.135L92.0103 119.447L92.5627 120.408L91.364 121.607L88.6267 116.234L90.0823 114.779L95.4713 117.499L94.278 118.693ZM92.2009 117.466L91.364 116.977C91.2737 116.924 91.1448 116.848 90.9773 116.751C90.8079 116.651 90.6348 116.548 90.458 116.441C90.2812 116.331 90.1376 116.239 90.0271 116.165C90.1026 116.274 90.1928 116.412 90.2978 116.58C90.4027 116.743 90.5049 116.908 90.6044 117.074C90.7057 117.238 90.7885 117.376 90.853 117.488L91.3419 118.325L92.2009 117.466Z" fill="#1BC3C8"></path>
<path d="M103.111 91.2968C102.959 91.398 102.845 91.5208 102.769 91.6652C102.692 91.8075 102.652 91.9675 102.648 92.1452C102.644 92.3228 102.678 92.5146 102.75 92.7204C102.822 92.9227 102.932 93.1343 103.079 93.3553C103.279 93.6543 103.484 93.8804 103.696 94.0335C103.907 94.1866 104.125 94.2638 104.348 94.2653C104.573 94.2653 104.803 94.1872 105.037 94.0312C105.249 93.8896 105.433 93.7246 105.589 93.5361C105.748 93.3461 105.899 93.1435 106.043 92.9283L106.767 94.0138C106.619 94.2471 106.448 94.458 106.255 94.6465C106.063 94.8336 105.844 95.0095 105.597 95.1742C105.081 95.518 104.591 95.6979 104.126 95.7138C103.662 95.7261 103.23 95.6023 102.831 95.3423C102.435 95.0808 102.076 94.7096 101.755 94.2286C101.516 93.8689 101.346 93.5064 101.246 93.1409C101.149 92.774 101.124 92.4161 101.173 92.0673C101.221 91.7162 101.348 91.3858 101.555 91.0759C101.762 90.7624 102.051 90.4822 102.421 90.2351C102.651 90.082 102.911 89.948 103.2 89.8332C103.491 89.7147 103.796 89.6331 104.117 89.5883L104.398 90.8612C104.169 90.8945 103.948 90.9422 103.732 91.0043C103.517 91.0664 103.31 91.1639 103.111 91.2968Z" fill="#1BC3C8"></path>
<path d="M99.6026 85.0767L98.3188 85.9326L95.8506 82.2308L94.6903 83.0044L93.9904 81.9547L97.5914 79.5536L98.2914 80.6034L97.1344 81.3748L99.6026 85.0767Z" fill="#1BC3C8"></path>
<path d="M93.3639 71.1276C93.6081 71.4938 93.7862 71.8571 93.8981 72.2175C94.0108 72.5743 94.0462 72.9231 94.0044 73.2641C93.9625 73.605 93.8343 73.9314 93.6198 74.2435C93.4039 74.5533 93.0922 74.8441 92.6849 75.1157C92.2862 75.3815 91.9024 75.5545 91.5333 75.6347C91.1649 75.7113 90.815 75.7051 90.4835 75.6163C90.1505 75.5253 89.8381 75.3596 89.5463 75.1191C89.2545 74.8786 88.9851 74.5731 88.738 74.2026C88.4086 73.7086 88.2038 73.2254 88.1236 72.753C88.0442 72.2771 88.1091 71.8253 88.3186 71.3977C88.5266 70.9679 88.8971 70.5754 89.4301 70.22C89.9717 69.8588 90.4788 69.6663 90.9511 69.6424C91.4257 69.6171 91.8641 69.7348 92.2664 69.9955C92.6687 70.2563 93.0346 70.6336 93.3639 71.1276ZM90.0944 73.3076C90.2851 73.5936 90.4816 73.8179 90.6838 73.9804C90.886 74.1429 91.0944 74.2324 91.3089 74.249C91.5234 74.2656 91.7445 74.1981 91.972 74.0464C92.2081 73.8889 92.3587 73.7087 92.4237 73.5057C92.4909 73.3013 92.4862 73.076 92.4096 72.8297C92.3352 72.582 92.2026 72.3151 92.0119 72.0291C91.7259 71.6001 91.4283 71.3087 91.1191 71.1548C90.81 71.001 90.481 71.0404 90.1322 71.273C89.9003 71.4276 89.7505 71.6089 89.6826 71.8169C89.6169 72.0235 89.6209 72.2524 89.6946 72.5038C89.7704 72.7537 89.9037 73.0216 90.0944 73.3076Z" fill="#1BC3C8"></path>
<path d="M109.888 143.788L108.808 143.549L107.959 145.199L108.779 145.945L108.003 147.453L103.756 143.173L104.698 141.342L110.66 142.288L109.888 143.788ZM107.536 143.255L106.59 143.044C106.487 143.021 106.342 142.989 106.152 142.947C105.961 142.904 105.764 142.859 105.563 142.811C105.361 142.76 105.196 142.716 105.069 142.679C105.174 142.76 105.302 142.864 105.453 142.991C105.603 143.115 105.751 143.241 105.896 143.368C106.042 143.494 106.163 143.6 106.259 143.687L106.98 144.335L107.536 143.255Z" fill="#09CDD9"></path>
<path d="M101.675 138.793L100.668 138.334L99.494 139.77L100.14 140.672L99.0668 141.984L95.8063 136.912L97.1091 135.318L102.743 137.487L101.675 138.793ZM99.4857 137.781L98.6041 137.378C98.509 137.334 98.3732 137.272 98.1967 137.191C98.0182 137.109 97.8357 137.024 97.6491 136.935C97.4622 136.843 97.31 136.766 97.1928 136.704C97.2787 136.804 97.3823 136.933 97.5035 137.089C97.6243 137.241 97.7425 137.395 97.858 137.55C97.9751 137.703 98.0714 137.832 98.1467 137.937L98.7168 138.721L99.4857 137.781Z" fill="#09CDD9"></path>
<path d="M96.8188 146.349L95.7615 146.023L94.7814 147.598L95.5375 148.409L94.642 149.849L90.7571 145.238L91.8445 143.49L97.7102 144.916L96.8188 146.349ZM94.5176 145.626L93.5916 145.34C93.4916 145.308 93.3489 145.264 93.1636 145.207C92.976 145.149 92.784 145.088 92.5876 145.024C92.3904 144.956 92.2296 144.899 92.1053 144.852C92.2035 144.941 92.3227 145.055 92.4629 145.195C92.6024 145.33 92.7393 145.468 92.8737 145.607C93.0096 145.743 93.1216 145.859 93.2099 145.954L93.8759 146.658L94.5176 145.626Z" fill="#09CDD9"></path>
<path d="M86.1833 130.681C86.602 130.091 87.0437 129.74 87.5086 129.629C87.9751 129.516 88.4451 129.627 88.9189 129.963C89.1313 130.114 89.3135 130.289 89.4652 130.489C89.6185 130.687 89.7227 130.91 89.7778 131.156C89.8343 131.4 89.8267 131.668 89.7548 131.959C89.6843 132.247 89.5317 132.557 89.2967 132.888L89.046 133.242L90.5915 134.338L89.6992 135.596L85.0402 132.294L86.1833 130.681ZM87.1795 131.431L86.9491 131.756L88.0198 132.515L88.196 132.266C88.2728 132.158 88.3263 132.044 88.3565 131.925C88.3845 131.804 88.3767 131.687 88.333 131.573C88.2886 131.455 88.1964 131.347 88.0562 131.248C87.9096 131.144 87.7597 131.103 87.6066 131.125C87.4514 131.146 87.309 131.248 87.1795 131.431Z" fill="#09CDD9"></path>
<path d="M87.5081 110.298L86.5137 109.813L85.3025 111.218L85.9246 112.136L84.8179 113.42L81.6902 108.266L83.034 106.706L88.6097 109.02L87.5081 110.298ZM85.3458 109.229L84.475 108.804C84.381 108.757 84.2469 108.691 84.0726 108.607C83.8963 108.52 83.716 108.43 83.5318 108.337C83.3473 108.239 83.1973 108.158 83.0816 108.093C83.165 108.196 83.2652 108.327 83.3823 108.486C83.4991 108.642 83.6132 108.799 83.7246 108.956C83.8378 109.112 83.9307 109.244 84.0032 109.351L84.5528 110.15L85.3458 109.229Z" fill="#09CDD9"></path>
<path d="M197.024 145.302C196.906 145.162 196.771 145.063 196.619 145.005C196.469 144.944 196.305 144.922 196.128 144.939C195.951 144.956 195.765 145.011 195.568 145.106C195.376 145.201 195.178 145.334 194.975 145.505C194.701 145.737 194.5 145.967 194.372 146.195C194.244 146.423 194.192 146.648 194.216 146.87C194.242 147.093 194.345 147.313 194.527 147.527C194.692 147.722 194.877 147.886 195.082 148.02C195.289 148.155 195.507 148.282 195.738 148.401L194.742 149.244C194.493 149.124 194.264 148.978 194.055 148.807C193.847 148.639 193.647 148.441 193.456 148.214C193.055 147.741 192.82 147.274 192.752 146.814C192.686 146.354 192.76 145.911 192.973 145.486C193.188 145.062 193.515 144.663 193.957 144.29C194.287 144.01 194.628 143.8 194.979 143.66C195.333 143.521 195.685 143.456 196.038 143.465C196.392 143.472 196.735 143.561 197.066 143.731C197.401 143.901 197.712 144.156 198 144.496C198.178 144.707 198.341 144.949 198.488 145.224C198.639 145.499 198.755 145.793 198.836 146.107L197.603 146.531C197.544 146.308 197.472 146.093 197.386 145.886C197.299 145.679 197.179 145.485 197.024 145.302Z" fill="#09CDD9"></path>
<path d="M202.963 141.835L203.66 140.976L202.565 139.479L201.53 139.878L200.529 138.51L206.257 136.626L207.472 138.287L203.96 143.197L202.963 141.835ZM204.493 139.97L205.104 139.218C205.17 139.137 205.265 139.021 205.387 138.87C205.511 138.718 205.639 138.563 205.772 138.404C205.908 138.247 206.021 138.119 206.111 138.021C205.992 138.079 205.841 138.147 205.66 138.225C205.482 138.304 205.303 138.379 205.124 138.452C204.947 138.527 204.798 138.588 204.677 138.635L203.775 138.99L204.493 139.97Z" fill="#09CDD9"></path>
<path d="M208.935 132.254L213.339 128.618L214.322 129.808L210.879 132.65L212.279 134.346L211.318 135.139L208.935 132.254Z" fill="#09CDD9"></path>
<path d="M216.907 125.609L221.071 121.701L222.127 122.826L218.871 125.882L220.377 127.485L219.468 128.338L216.907 125.609Z" fill="#09CDD9"></path>
<path d="M208.336 147.346L207.537 146.026L211.342 143.721L210.62 142.528L211.699 141.874L213.941 145.576L212.862 146.23L212.141 145.041L208.336 147.346Z" fill="#09CDD9"></path>
<path d="M121.5 137H177.5L227 208H170L121.5 137Z" fill="#3C434D"></path>
<path d="M106.863 100.013C107.497 99.6622 108.047 99.5372 108.514 99.6385C108.983 99.7385 109.359 100.042 109.64 100.55C109.767 100.778 109.855 101.015 109.905 101.261C109.958 101.506 109.955 101.751 109.898 101.998C109.843 102.242 109.721 102.48 109.53 102.711C109.342 102.94 109.07 103.154 108.715 103.351L108.335 103.561L109.254 105.218L107.905 105.966L105.135 100.972L106.863 100.013ZM107.437 101.12L107.089 101.313L107.725 102.461L107.992 102.313C108.108 102.249 108.205 102.17 108.284 102.075C108.362 101.979 108.405 101.87 108.415 101.748C108.426 101.623 108.39 101.485 108.307 101.335C108.219 101.178 108.102 101.076 107.954 101.03C107.805 100.981 107.633 101.011 107.437 101.12Z" fill="#1BC3C8"></path>
<path d="M89.8987 94.1455L89.0018 93.4973L87.5685 94.6755L88.0249 95.6859L86.7152 96.7625L84.5131 91.1495L86.1034 89.8422L91.2023 93.0739L89.8987 94.1455ZM87.9507 92.723L87.1652 92.155C87.0806 92.0931 86.9597 92.0055 86.8024 91.892C86.6434 91.7766 86.4812 91.6571 86.3156 91.5337C86.1504 91.4065 86.0164 91.3009 85.9136 91.2169C85.9782 91.3323 86.0546 91.4786 86.1427 91.6555C86.2313 91.8289 86.317 92.0028 86.3998 92.1774C86.4847 92.3504 86.5537 92.4959 86.607 92.614L87.0122 93.4944L87.9507 92.723Z" fill="#1BC3C8"></path>
<path d="M129.566 98.3909C130.044 98.1905 130.466 98.0828 130.833 98.0676C131.198 98.05 131.508 98.1232 131.763 98.2874C132.021 98.4505 132.222 98.7038 132.366 99.0472C132.455 99.261 132.501 99.4706 132.502 99.6761C132.504 99.8817 132.466 100.082 132.39 100.278C132.316 100.47 132.207 100.657 132.066 100.838L134.562 102.489L132.948 103.166L131.028 101.717L130.668 101.868L131.471 103.785L130.048 104.381L127.841 99.1141L129.566 98.3909ZM129.996 99.4771L129.715 99.5949L130.219 100.798L130.486 100.686C130.705 100.595 130.863 100.472 130.962 100.317C131.061 100.163 131.059 99.9619 130.955 99.7145C130.884 99.544 130.77 99.4349 130.615 99.3871C130.459 99.3394 130.253 99.3694 129.996 99.4771Z" fill="#09CDD9"></path>
<path d="M128.088 91.7242L127.307 90.9405L125.703 91.8736L125.991 92.9441L124.526 93.7967L123.253 87.9031L125.032 86.8679L129.547 90.8755L128.088 91.7242ZM126.393 90.0076L125.709 89.3211C125.636 89.2464 125.53 89.1404 125.393 89.0033C125.255 88.8638 125.114 88.7199 124.97 88.5715C124.828 88.4195 124.712 88.2937 124.624 88.1943C124.67 88.3186 124.722 88.4752 124.78 88.664C124.84 88.8493 124.896 89.0348 124.95 89.2204C125.006 89.4047 125.051 89.5594 125.085 89.6845L125.343 90.6186L126.393 90.0076Z" fill="#09CDD9"></path>
<path d="M120.807 77.2661C120.643 77.3464 120.515 77.4532 120.42 77.5864C120.325 77.7173 120.264 77.8705 120.237 78.0462C120.21 78.2219 120.218 78.4164 120.262 78.6299C120.307 78.8399 120.388 79.0641 120.505 79.3026C120.664 79.6252 120.837 79.8763 121.027 80.056C121.217 80.2356 121.422 80.3408 121.643 80.3716C121.867 80.4012 122.105 80.3541 122.357 80.2302C122.586 80.1178 122.79 79.9784 122.97 79.8121C123.152 79.6446 123.328 79.4636 123.5 79.2693L124.074 80.4406C123.897 80.6524 123.7 80.839 123.483 81.0004C123.269 81.1607 123.028 81.3062 122.762 81.4369C122.206 81.7099 121.696 81.8237 121.233 81.7783C120.771 81.7294 120.359 81.5498 119.998 81.2396C119.639 80.9283 119.333 80.5131 119.078 79.9941C118.888 79.606 118.767 79.2242 118.716 78.8488C118.668 78.4723 118.691 78.1143 118.786 77.775C118.879 77.4333 119.048 77.1224 119.294 76.8424C119.541 76.5589 119.864 76.3191 120.264 76.123C120.512 76.0014 120.787 75.9027 121.089 75.827C121.392 75.7477 121.706 75.707 122.03 75.7048L122.14 77.0036C121.91 77.0066 121.684 77.0247 121.462 77.0579C121.241 77.0912 121.022 77.1606 120.807 77.2661Z" fill="#09CDD9"></path>
<path d="M109.06 79.4863L106.188 74.5501L107.521 73.7741L109.767 77.6333L111.667 76.5273L112.294 77.6043L109.06 79.4863Z" fill="#09CDD9"></path>
<path d="M150.85 83.9853L149.131 89.7436L147.315 89.7915L145.302 84.1317L147.035 84.0859L147.889 86.9589C147.92 87.0675 147.957 87.2072 147.998 87.3781C148.041 87.5463 148.081 87.7146 148.116 87.883C148.155 88.0513 148.179 88.1887 148.19 88.2952C148.197 88.1882 148.213 88.051 148.238 87.8837C148.262 87.7163 148.289 87.5489 148.318 87.3814C148.35 87.2112 148.38 87.071 148.409 86.9609L149.124 84.0308L150.85 83.9853Z" fill="#09CDD9"></path>
<path d="M147.519 73.2351C147.336 73.2351 147.174 73.2742 147.03 73.3524C146.887 73.4279 146.765 73.5386 146.663 73.6845C146.562 73.8303 146.484 74.0088 146.429 74.2197C146.377 74.428 146.351 74.665 146.351 74.9307C146.351 75.29 146.397 75.5921 146.488 75.8369C146.579 76.0816 146.717 76.2665 146.902 76.3915C147.09 76.5164 147.324 76.5789 147.605 76.5788C147.861 76.5787 148.105 76.5435 148.34 76.4731C148.577 76.4028 148.815 76.3181 149.055 76.2191L149.055 77.5237C148.802 77.6358 148.543 77.7166 148.278 77.7661C148.015 77.8157 147.735 77.8405 147.438 77.8405C146.818 77.8407 146.31 77.7184 145.914 77.4737C145.521 77.2264 145.231 76.8841 145.043 76.4466C144.858 76.0092 144.765 75.5014 144.765 74.9232C144.765 74.4909 144.825 74.0951 144.945 73.7357C145.067 73.3763 145.245 73.065 145.48 72.802C145.714 72.5363 146.003 72.3318 146.347 72.1885C146.693 72.0426 147.089 71.9695 147.534 71.9694C147.81 71.9694 148.1 72.0018 148.405 72.0669C148.712 72.1293 149.012 72.2308 149.304 72.3713L148.831 73.5863C148.623 73.4874 148.412 73.4041 148.198 73.3365C147.985 73.2688 147.758 73.235 147.519 73.2351Z" fill="#09CDD9"></path>
<path d="M187.839 79.9272C188.528 80.1498 188.995 80.4662 189.24 80.8766C189.487 81.2877 189.522 81.7696 189.343 82.3222C189.263 82.57 189.15 82.7962 189.005 83.001C188.862 83.2066 188.681 83.3725 188.462 83.4989C188.246 83.6261 187.988 83.6989 187.69 83.7173C187.393 83.7365 187.052 83.6837 186.665 83.5588L186.253 83.4255L185.67 85.2282L184.202 84.7538L185.958 79.3195L187.839 79.9272ZM187.422 81.1021L187.043 80.9796L186.64 82.2286L186.929 82.3222C187.056 82.3631 187.18 82.38 187.303 82.3731C187.426 82.3638 187.536 82.3212 187.632 82.2453C187.731 82.1678 187.806 82.0473 187.859 81.8838C187.915 81.7128 187.909 81.5576 187.841 81.4182C187.775 81.2763 187.635 81.171 187.422 81.1021Z" fill="#09CDD9"></path>
<path d="M148.814 95.5151C149.536 95.4654 150.087 95.5853 150.467 95.875C150.85 96.1645 151.061 96.5989 151.101 97.1783C151.119 97.4381 151.099 97.6901 151.04 97.9343C150.984 98.1783 150.877 98.3997 150.721 98.5984C150.568 98.7969 150.356 98.9603 150.086 99.0885C149.818 99.2166 149.481 99.2946 149.076 99.3225L148.643 99.3523L148.774 101.242L147.234 101.348L146.842 95.651L148.814 95.5151ZM148.864 96.7607L148.467 96.7881L148.557 98.0975L148.861 98.0766C148.993 98.0674 149.115 98.0368 149.227 97.9848C149.338 97.9302 149.423 97.8499 149.484 97.7439C149.547 97.6351 149.573 97.495 149.561 97.3235C149.548 97.1443 149.485 97.0025 149.371 96.8981C149.257 96.7911 149.088 96.7453 148.864 96.7607Z" fill="#09CDD9"></path>
<path d="M171.186 96.0003C171.862 96.2598 172.311 96.601 172.533 97.024C172.758 97.4479 172.767 97.931 172.558 98.4731C172.465 98.7162 172.34 98.9361 172.184 99.1326C172.03 99.3302 171.84 99.4861 171.615 99.6005C171.392 99.7158 171.131 99.7745 170.832 99.7767C170.535 99.7799 170.197 99.7087 169.818 99.563L169.413 99.4076L168.734 101.176L167.293 100.623L169.341 95.2917L171.186 96.0003ZM170.706 97.1509L170.334 97.0081L169.864 98.2334L170.148 98.3426C170.272 98.3902 170.396 98.4139 170.518 98.4136C170.642 98.4109 170.754 98.3743 170.854 98.3038C170.956 98.2318 171.039 98.1155 171.1 97.9551C171.165 97.7873 171.167 97.632 171.108 97.4892C171.049 97.344 170.915 97.2312 170.706 97.1509Z" fill="#09CDD9"></path>
<path d="M172.552 89.0069L174.255 87.41L175.806 88.0339L172.764 90.5618L171.932 92.6312L170.49 92.051L171.305 90.0252L170.878 86.0515L172.436 86.6783L172.552 89.0069Z" fill="#09CDD9"></path>
<path d="M179.364 82.9341C179.196 83.3411 178.994 83.6916 178.757 83.9856C178.524 84.2782 178.254 84.5023 177.948 84.6578C177.642 84.8133 177.3 84.8891 176.921 84.8853C176.543 84.879 176.128 84.7826 175.675 84.5962C175.232 84.4137 174.875 84.1917 174.602 83.9302C174.333 83.6673 174.143 83.3735 174.031 83.0488C173.921 82.7218 173.884 82.37 173.921 81.9937C173.958 81.6173 174.061 81.2233 174.231 80.8115C174.457 80.2625 174.743 79.8229 175.091 79.4928C175.441 79.1612 175.852 78.963 176.324 78.8982C176.797 78.8309 177.329 78.9193 177.922 79.1633C178.523 79.4112 178.966 79.7245 179.25 80.1032C179.535 80.4828 179.682 80.9123 179.691 81.3916C179.699 81.871 179.59 82.3851 179.364 82.9341ZM175.73 81.4376C175.599 81.7554 175.523 82.0436 175.501 82.3021C175.479 82.5606 175.521 82.7835 175.627 82.9708C175.733 83.158 175.912 83.3038 176.165 83.4079C176.427 83.516 176.661 83.5404 176.866 83.481C177.073 83.4227 177.257 83.293 177.419 83.0921C177.583 82.8921 177.73 82.6331 177.861 82.3153C178.057 81.8385 178.133 81.429 178.088 81.0866C178.043 80.7442 177.827 80.4932 177.44 80.3335C177.182 80.2274 176.948 80.2042 176.737 80.264C176.529 80.3247 176.341 80.4558 176.174 80.6572C176.009 80.8596 175.861 81.1197 175.73 81.4376Z" fill="#09CDD9"></path>
<path d="M211.229 92.1146C211.872 92.4485 212.28 92.8381 212.453 93.2834C212.629 93.7299 212.583 94.2108 212.315 94.7261C212.195 94.9572 212.047 95.1616 211.869 95.3394C211.694 95.5183 211.488 95.6519 211.251 95.7403C211.017 95.8298 210.751 95.8588 210.453 95.8273C210.158 95.7971 209.83 95.6883 209.469 95.5009L209.085 95.301L208.211 96.982L206.842 96.2704L209.476 91.203L211.229 92.1146ZM210.624 93.204L210.27 93.0203L209.665 94.1849L209.935 94.3254C210.053 94.3867 210.173 94.4241 210.295 94.4376C210.418 94.4489 210.533 94.425 210.64 94.3662C210.751 94.3062 210.846 94.1999 210.925 94.0474C211.008 93.888 211.028 93.7339 210.985 93.5853C210.943 93.4344 210.822 93.3073 210.624 93.204Z" fill="#09CDD9"></path>
<path d="M204.77 76.102C205.417 76.4259 205.831 76.8092 206.012 77.2518C206.194 77.6955 206.156 78.1771 205.896 78.6965C205.779 78.9294 205.634 79.136 205.459 79.3165C205.287 79.4982 205.083 79.6349 204.848 79.7269C204.615 79.82 204.349 79.8531 204.051 79.8263C203.755 79.8006 203.426 79.6968 203.062 79.5151L202.675 79.3211L201.827 81.0154L200.447 80.325L203.002 75.2176L204.77 76.102ZM204.181 77.2007L203.825 77.0224L203.237 78.1962L203.51 78.3325C203.629 78.3919 203.749 78.4275 203.871 78.4392C203.995 78.4485 204.11 78.4229 204.216 78.3624C204.325 78.3007 204.418 78.193 204.495 78.0393C204.576 77.8786 204.593 77.7243 204.548 77.5763C204.503 77.4261 204.381 77.3009 204.181 77.2007Z" fill="#09CDD9"></path>
<path d="M218.01 83.1857C218.595 83.6121 218.94 84.0585 219.045 84.5248C219.152 84.9927 219.034 85.4613 218.692 85.9306C218.538 86.141 218.361 86.3208 218.159 86.4699C217.959 86.6206 217.735 86.7218 217.488 86.7737C217.243 86.827 216.975 86.8158 216.686 86.7401C216.398 86.6659 216.09 86.5091 215.762 86.2698L215.411 86.0144L214.296 87.5454L213.049 86.6366L216.413 82.0215L218.01 83.1857ZM217.247 84.172L216.925 83.9373L216.152 84.998L216.399 85.1774C216.506 85.2557 216.619 85.3106 216.738 85.3424C216.858 85.372 216.975 85.3657 217.09 85.3235C217.208 85.2807 217.318 85.1899 217.419 85.051C217.525 84.9058 217.567 84.7565 217.547 84.6031C217.528 84.4476 217.428 84.3039 217.247 84.172Z" fill="#09CDD9"></path>
<path d="M224.01 75.1857C224.595 75.6121 224.94 76.0585 225.045 76.5248C225.152 76.9927 225.034 77.4613 224.692 77.9306C224.538 78.141 224.361 78.3208 224.159 78.4699C223.959 78.6206 223.735 78.7218 223.488 78.7737C223.243 78.827 222.975 78.8158 222.686 78.7401C222.398 78.6659 222.09 78.5091 221.762 78.2698L221.411 78.0144L220.296 79.5454L219.049 78.6366L222.413 74.0215L224.01 75.1857ZM223.247 76.172L222.925 75.9373L222.152 76.998L222.399 77.1774C222.506 77.2557 222.619 77.3106 222.738 77.3424C222.858 77.372 222.975 77.3657 223.09 77.3235C223.208 77.2807 223.318 77.1899 223.419 77.051C223.525 76.9058 223.567 76.7565 223.547 76.6031C223.528 76.4476 223.428 76.3039 223.247 76.172Z" fill="#09CDD9"></path>
<path d="M182.78 74.7088C182.655 75.0842 182.498 75.4189 182.309 75.7128C182.124 76.005 181.904 76.2446 181.649 76.4314C181.398 76.6165 181.108 76.7395 180.78 76.8003L181.595 78.7648L179.772 78.156L179.266 76.6364C179.264 76.6356 179.255 76.6327 179.24 76.6277C179.228 76.6236 179.219 76.6207 179.214 76.6191C178.76 76.4673 178.388 76.2703 178.098 76.028C177.811 75.7841 177.602 75.504 177.468 75.1877C177.336 74.869 177.275 74.5206 177.286 74.1426C177.297 73.7646 177.373 73.3644 177.514 72.942C177.702 72.3789 177.958 71.9207 178.282 71.5676C178.609 71.2128 179.006 70.987 179.472 70.8901C179.939 70.7907 180.476 70.8424 181.084 71.0453C181.701 71.2515 182.164 71.5338 182.473 71.8922C182.784 72.2514 182.96 72.6699 183.001 73.1475C183.042 73.6252 182.968 74.1456 182.78 74.7088ZM179.053 73.4641C178.944 73.7902 178.887 74.0829 178.883 74.3423C178.879 74.6017 178.936 74.8212 179.054 75.0008C179.173 75.1804 179.362 75.3135 179.621 75.4001C179.891 75.49 180.125 75.4984 180.325 75.4252C180.528 75.3528 180.703 75.2108 180.851 74.9993C181.001 74.7885 181.13 74.5201 181.239 74.1941C181.402 73.705 181.45 73.2912 181.382 72.9527C181.313 72.6142 181.08 72.3786 180.683 72.2458C180.418 72.1575 180.183 72.1504 179.977 72.2244C179.774 72.2992 179.596 72.4429 179.442 72.6552C179.292 72.8684 179.162 73.1381 179.053 73.4641Z" fill="#09CDD9"></path>
<path d="M192.307 71.0577C192.951 71.3867 193.362 71.7732 193.539 72.2172C193.719 72.6624 193.676 73.1436 193.412 73.6609C193.294 73.8929 193.147 74.0984 192.971 74.2775C192.797 74.4578 192.592 74.593 192.356 74.6831C192.122 74.7744 191.856 74.8055 191.559 74.7763C191.263 74.7483 190.934 74.6419 190.572 74.4573L190.186 74.2603L189.325 75.9479L187.951 75.2468L190.546 70.1595L192.307 71.0577ZM191.709 72.1518L191.354 71.9707L190.758 73.1399L191.029 73.2783C191.147 73.3387 191.268 73.3752 191.39 73.3878C191.513 73.3981 191.628 73.3734 191.735 73.3137C191.845 73.2529 191.939 73.1459 192.017 72.9928C192.098 72.8327 192.117 72.6786 192.073 72.5303C192.03 72.3797 191.909 72.2535 191.709 72.1518Z" fill="#09CDD9"></path>
</svg></svg></g></g><defs><clipPath id="SvgjsClipPath1182"><rect width="1000" height="1000" x="0" y="0" rx="200" ry="200"></rect></clipPath></defs></svg>