<svg width="38" height="45" viewBox="0 0 38 45" fill="none" xmlns="http://www.w3.org/2000/svg">
<g filter="url(#filter0_di_712_16519)">
<path d="M20.2644 10.0035L21.8044 13.0835C22.0144 13.5035 22.5744 13.9235 23.041 13.9935L25.8294 14.4601C27.6144 14.7635 28.0344 16.0468 26.751 17.3301L24.581 19.5118C24.2194 19.8735 24.0094 20.5851 24.126 21.0985L24.7444 23.7935C25.2344 25.9168 24.1027 26.7451 22.2244 25.6368L19.611 24.0851C19.1327 23.8051 18.3627 23.8051 17.8844 24.0851L15.2594 25.6251C13.381 26.7335 12.2494 25.9051 12.7394 23.7818L13.3577 21.0868C13.4744 20.5851 13.2644 19.8735 12.9027 19.5001L10.7444 17.3418C9.46102 16.0585 9.88102 14.7635 11.666 14.4718L14.4544 14.0051C14.921 13.9235 15.481 13.5151 15.691 13.0951L17.231 10.0151C18.0594 8.33512 19.436 8.33512 20.2644 10.0035Z" fill="#3BC2CB"/>
<path d="M11.7477 11.9167C11.2693 11.9167 10.8727 11.52 10.8727 11.0417V2.875C10.8727 2.39667 11.2693 2 11.7477 2C12.226 2 12.6227 2.39667 12.6227 2.875V11.0417C12.6227 11.52 12.226 11.9167 11.7477 11.9167Z" fill="#3BC2CB"/>
<path d="M25.7477 11.9167C25.2693 11.9167 24.8727 11.52 24.8727 11.0417V2.875C24.8727 2.39667 25.2693 2 25.7477 2C26.226 2 26.6227 2.39667 26.6227 2.875V11.0417C26.6227 11.52 26.226 11.9167 25.7477 11.9167Z" fill="#3BC2CB"/>
<path d="M18.7477 6.08333C18.2693 6.08333 17.8727 5.68667 17.8727 5.20833V2.875C17.8727 2.39667 18.2693 2 18.7477 2C19.226 2 19.6227 2.39667 19.6227 2.875V5.20833C19.6227 5.68667 19.226 6.08333 18.7477 6.08333Z" fill="#3BC2CB"/>
</g>
<defs>
<filter id="filter0_di_712_16519" x="-5.25232" y="-1.45825" width="48" height="48" filterUnits="userSpaceOnUse" color-interpolation-filters="sRGB">
<feFlood flood-opacity="0" result="BackgroundImageFix"/>
<feColorMatrix in="SourceAlpha" type="matrix" values="0 0 0 0 0 0 0 0 0 0 0 0 0 0 0 0 0 0 127 0" result="hardAlpha"/>
<feOffset dy="8"/>
<feGaussianBlur stdDeviation="5"/>
<feComposite in2="hardAlpha" operator="out"/>
<feColorMatrix type="matrix" values="0 0 0 0 0.156863 0 0 0 0 0.768627 0 0 0 0 0.729412 0 0 0 0.3 0"/>
<feBlend mode="normal" in2="BackgroundImageFix" result="effect1_dropShadow_712_16519"/>
<feBlend mode="normal" in="SourceGraphic" in2="effect1_dropShadow_712_16519" result="shape"/>
<feColorMatrix in="SourceAlpha" type="matrix" values="0 0 0 0 0 0 0 0 0 0 0 0 0 0 0 0 0 0 127 0" result="hardAlpha"/>
<feOffset dy="-2"/>
<feGaussianBlur stdDeviation="2"/>
<feComposite in2="hardAlpha" operator="arithmetic" k2="-1" k3="1"/>
<feColorMatrix type="matrix" values="0 0 0 0 1 0 0 0 0 1 0 0 0 0 1 0 0 0 0.4 0"/>
<feBlend mode="normal" in2="shape" result="effect2_innerShadow_712_16519"/>
</filter>
</defs>
</svg>
