<svg width="43" height="44" viewBox="0 0 43 44" fill="none" xmlns="http://www.w3.org/2000/svg">
<g filter="url(#filter0_di_712_16537)">
<path d="M29.8917 5.70489L23.055 2.65989C22.0517 2.21656 20.535 2.21656 19.5317 2.65989L12.695 5.70489C10.9683 6.47489 10.7117 7.52489 10.7117 8.08489C10.7117 8.64489 10.9683 9.69489 12.695 10.4649L19.5317 13.5099C20.0333 13.7316 20.6633 13.8482 21.2933 13.8482C21.9233 13.8482 22.5533 13.7316 23.055 13.5099L29.8917 10.4649C31.6183 9.69489 31.875 8.64489 31.875 8.08489C31.875 7.52489 31.63 6.47489 29.8917 5.70489Z" fill="#3BC2CB"/>
<path d="M21.2933 19.8799C20.85 19.8799 20.4067 19.7866 19.9983 19.6116L12.135 16.1116C10.9333 15.5749 10 14.1399 10 12.8216C10 12.3433 10.385 11.9583 10.8633 11.9583C11.3417 11.9583 11.7267 12.3433 11.7267 12.8216C11.7267 13.4516 12.2517 14.2683 12.835 14.5249L20.6983 18.0249C21.0717 18.1883 21.5033 18.1883 21.8767 18.0249L29.74 14.5249C30.3233 14.2683 30.8483 13.4633 30.8483 12.8216C30.8483 12.3433 31.2333 11.9583 31.7117 11.9583C32.19 11.9583 32.575 12.3433 32.575 12.8216C32.575 14.1283 31.6417 15.5749 30.44 16.1116L22.5767 19.6116C22.18 19.7866 21.7367 19.8799 21.2933 19.8799Z" fill="#3BC2CB"/>
<path d="M21.2933 25.6668C20.85 25.6668 20.4067 25.5735 19.9983 25.3985L12.135 21.8985C10.84 21.3268 10 20.0318 10 18.6085C10 18.1301 10.385 17.7451 10.8633 17.7451C11.3417 17.7451 11.7267 18.1301 11.7267 18.6085C11.7267 19.3435 12.1583 20.0085 12.835 20.3118L20.6983 23.8118C21.0717 23.9751 21.5033 23.9751 21.8767 23.8118L29.74 20.3118C30.405 20.0201 30.8483 19.3435 30.8483 18.6085C30.8483 18.1301 31.2333 17.7451 31.7117 17.7451C32.19 17.7451 32.575 18.1301 32.575 18.6085C32.575 20.0318 31.735 21.3151 30.44 21.8985L22.5767 25.3985C22.18 25.5735 21.7367 25.6668 21.2933 25.6668Z" fill="#3BC2CB"/>
</g>
<defs>
<filter id="filter0_di_712_16537" x="-2.70667" y="-2" width="48" height="48" filterUnits="userSpaceOnUse" color-interpolation-filters="sRGB">
<feFlood flood-opacity="0" result="BackgroundImageFix"/>
<feColorMatrix in="SourceAlpha" type="matrix" values="0 0 0 0 0 0 0 0 0 0 0 0 0 0 0 0 0 0 127 0" result="hardAlpha"/>
<feOffset dy="8"/>
<feGaussianBlur stdDeviation="5"/>
<feComposite in2="hardAlpha" operator="out"/>
<feColorMatrix type="matrix" values="0 0 0 0 0.156863 0 0 0 0 0.768627 0 0 0 0 0.729412 0 0 0 0.3 0"/>
<feBlend mode="normal" in2="BackgroundImageFix" result="effect1_dropShadow_712_16537"/>
<feBlend mode="normal" in="SourceGraphic" in2="effect1_dropShadow_712_16537" result="shape"/>
<feColorMatrix in="SourceAlpha" type="matrix" values="0 0 0 0 0 0 0 0 0 0 0 0 0 0 0 0 0 0 127 0" result="hardAlpha"/>
<feOffset dy="-2"/>
<feGaussianBlur stdDeviation="2"/>
<feComposite in2="hardAlpha" operator="arithmetic" k2="-1" k3="1"/>
<feColorMatrix type="matrix" values="0 0 0 0 1 0 0 0 0 1 0 0 0 0 1 0 0 0 0.4 0"/>
<feBlend mode="normal" in2="shape" result="effect2_innerShadow_712_16537"/>
</filter>
</defs>
</svg>
