<svg width="44" height="44" viewBox="0 0 44 44" fill="none" xmlns="http://www.w3.org/2000/svg">
<g filter="url(#filter0_di_712_16531)">
<path d="M26.555 2.33325H16.7783C12.5317 2.33325 10 4.86492 10 9.11159V18.8766C10 23.1349 12.5317 25.6666 16.7783 25.6666H26.5433C30.79 25.6666 33.3217 23.1349 33.3217 18.8883V9.11159C33.3333 4.86492 30.8017 2.33325 26.555 2.33325ZM16.5683 21.1749C16.5683 21.6533 16.1717 22.0499 15.6933 22.0499C15.215 22.0499 14.8183 21.6533 14.8183 21.1749V18.7599C14.8183 18.2816 15.215 17.8849 15.6933 17.8849C16.1717 17.8849 16.5683 18.2816 16.5683 18.7599V21.1749ZM22.5417 21.1749C22.5417 21.6533 22.145 22.0499 21.6667 22.0499C21.1883 22.0499 20.7917 21.6533 20.7917 21.1749V16.3333C20.7917 15.8549 21.1883 15.4583 21.6667 15.4583C22.145 15.4583 22.5417 15.8549 22.5417 16.3333V21.1749ZM28.515 21.1749C28.515 21.6533 28.1183 22.0499 27.64 22.0499C27.1617 22.0499 26.765 21.6533 26.765 21.1749V13.9183C26.765 13.4399 27.1617 13.0433 27.64 13.0433C28.1183 13.0433 28.515 13.4399 28.515 13.9183V21.1749ZM28.515 10.2316C28.515 10.7099 28.1183 11.1066 27.64 11.1066C27.1617 11.1066 26.765 10.7099 26.765 10.2316V9.09992C23.79 12.1566 20.0683 14.3149 15.9033 15.3533C15.8333 15.3766 15.7633 15.3766 15.6933 15.3766C15.2967 15.3766 14.9467 15.1083 14.8417 14.7116C14.725 14.2449 15.005 13.7666 15.4833 13.6499C19.415 12.6699 22.915 10.6049 25.6917 7.68825H24.2333C23.755 7.68825 23.3583 7.29159 23.3583 6.81325C23.3583 6.33492 23.755 5.93825 24.2333 5.93825H27.6517C27.6983 5.93825 27.7333 5.96159 27.78 5.96159C27.8383 5.97325 27.8967 5.97325 27.955 5.99659C28.0133 6.01992 28.06 6.05492 28.1183 6.08992C28.1533 6.11325 28.1883 6.12492 28.2233 6.14825C28.235 6.15992 28.235 6.17159 28.2467 6.17159C28.2933 6.21825 28.3283 6.26492 28.3633 6.31159C28.3983 6.35825 28.4333 6.39325 28.445 6.43992C28.4683 6.48659 28.4683 6.53325 28.48 6.59159C28.4917 6.64992 28.515 6.70825 28.515 6.77825C28.515 6.78992 28.5267 6.80159 28.5267 6.81325V10.2316H28.515Z" fill="#3BC2CB"/>
</g>
<defs>
<filter id="filter0_di_712_16531" x="-2.33337" y="-2" width="48" height="48" filterUnits="userSpaceOnUse" color-interpolation-filters="sRGB">
<feFlood flood-opacity="0" result="BackgroundImageFix"/>
<feColorMatrix in="SourceAlpha" type="matrix" values="0 0 0 0 0 0 0 0 0 0 0 0 0 0 0 0 0 0 127 0" result="hardAlpha"/>
<feOffset dy="8"/>
<feGaussianBlur stdDeviation="5"/>
<feComposite in2="hardAlpha" operator="out"/>
<feColorMatrix type="matrix" values="0 0 0 0 0.156863 0 0 0 0 0.768627 0 0 0 0 0.729412 0 0 0 0.3 0"/>
<feBlend mode="normal" in2="BackgroundImageFix" result="effect1_dropShadow_712_16531"/>
<feBlend mode="normal" in="SourceGraphic" in2="effect1_dropShadow_712_16531" result="shape"/>
<feColorMatrix in="SourceAlpha" type="matrix" values="0 0 0 0 0 0 0 0 0 0 0 0 0 0 0 0 0 0 127 0" result="hardAlpha"/>
<feOffset dy="-2"/>
<feGaussianBlur stdDeviation="2"/>
<feComposite in2="hardAlpha" operator="arithmetic" k2="-1" k3="1"/>
<feColorMatrix type="matrix" values="0 0 0 0 1 0 0 0 0 1 0 0 0 0 1 0 0 0 0.4 0"/>
<feBlend mode="normal" in2="shape" result="effect2_innerShadow_712_16531"/>
</filter>
</defs>
</svg>
